<?xml version="1.0" standalone="no"?>
<!DOCTYPE svg PUBLIC "-//W3C//DTD SVG 20010904//EN"
 "http://www.w3.org/TR/2001/REC-SVG-20010904/DTD/svg10.dtd">
<svg version="1.0" xmlns="http://www.w3.org/2000/svg"
 width="500.000000pt" height="500.000000pt" viewBox="0 0 500.000000 500.000000"
 preserveAspectRatio="xMidYMid meet">
<metadata>
Created by potrace 1.14, written by Peter Selinger 2001-2017
</metadata>
<g transform="translate(0.000000,500.000000) scale(0.100000,-0.100000)"
fill="#000000" stroke="none">
<path d="M2574 4367 c-13 -27 -140 -271 -204 -392 -26 -49 -85 -162 -130 -250
-45 -88 -121 -234 -168 -325 -48 -91 -125 -241 -173 -335 -205 -401 -250 -488
-326 -635 -44 -85 -120 -234 -169 -330 -49 -96 -92 -176 -96 -178 -5 -2 -8
-11 -8 -21 0 -9 -6 -25 -13 -36 -8 -11 -77 -144 -154 -295 -138 -269 -206
-402 -413 -805 -122 -236 -150 -292 -150 -302 0 -5 623 -8 1384 -8 l1384 0
-35 65 c-117 216 -345 628 -427 770 l-25 45 -429 5 -429 5 41 85 c66 134 280
554 286 560 3 3 6 10 7 15 1 6 18 39 37 74 20 34 36 68 36 75 0 7 4 16 10 22
5 5 37 63 70 129 83 162 103 196 111 193 8 -3 48 -80 299 -573 223 -439 280
-549 370 -710 9 -16 30 -55 47 -85 244 -439 366 -657 374 -665 9 -9 929 -16
929 -6 0 2 -59 119 -131 260 -73 141 -172 335 -222 431 -90 176 -212 412 -227
440 -4 8 -21 42 -38 75 -42 85 -332 652 -507 990 -45 88 -133 259 -195 380
-62 121 -138 270 -170 330 -32 61 -106 205 -165 320 -59 116 -122 237 -140
270 -29 53 -176 336 -213 408 -7 15 -14 27 -15 27 -1 0 -7 -10 -13 -23z m99
-790 c43 -83 151 -294 239 -467 88 -173 218 -427 288 -565 70 -137 193 -378
273 -535 80 -157 178 -348 217 -425 40 -77 79 -153 87 -170 8 -16 21 -41 28
-55 8 -14 67 -128 131 -255 65 -126 129 -254 144 -282 l28 -53 -133 0 -133 0
-32 63 c-18 34 -47 89 -65 122 -18 33 -56 105 -85 160 -29 55 -56 105 -60 110
-4 6 -38 69 -75 140 -37 72 -80 153 -95 180 -15 28 -51 95 -80 150 -29 55 -74
141 -100 190 -46 86 -97 186 -300 580 -51 99 -125 243 -165 320 -40 77 -98
191 -129 252 -32 62 -61 115 -65 118 -5 2 -24 -26 -44 -63 -61 -118 -172 -332
-257 -497 -45 -88 -122 -236 -170 -330 -48 -93 -135 -262 -192 -375 -58 -113
-156 -304 -219 -425 -62 -121 -136 -267 -165 -325 l-53 -105 594 -3 594 -2 63
-112 c35 -62 66 -120 70 -130 7 -17 -32 -18 -867 -18 l-875 0 165 323 c91 177
211 414 268 527 56 113 105 207 108 210 3 3 49 91 101 195 53 105 134 264 181
355 47 91 124 242 171 335 48 94 93 181 101 195 7 14 46 90 86 170 39 80 102
204 139 275 37 72 95 185 129 253 35 67 66 122 69 122 4 0 42 -69 85 -153z"/>
</g>
</svg>
